#!OML:ASF E:\emotionWalksFemale\Project 1\Capture day 1\Session 1\Female1.ASF
:FULLY-SPECIFIED
:DEGREES
1554
root -0.866552 15.4918 0.04483 931.56 -102.846 -571.767
lowerback 10.0208 3.06705 6.22632
upperback -3.633 5.13033 2.27516
thorax -9.19753 2.17139 -1.94985
lowerneck -5.39431 8.85106 6.70036
upperneck 8.42117 12.1286 -8.74731
head 4.34571 5.77918 -3.01802
rclavicle 1.89342e-014 -7.7526e-015
rhumerus -27.2175 23.4483 -87.5423
rradius 50.3492
rwrist 2.82766
rhand -14.2032 -61.8898
rfingers 7.12502
rthumb -168.067 -88.4704
lclavicle 1.89342e-014 -7.7526e-015
lhumerus -59.5528 -0.353647 77.7095
lradius 27.0949
lwrist -47.3052
lhand 7.76664 -29.0338
lfingers 7.12502
lthumb 33.0051 -2.03462
rfemur -6.22968 16.0562 30.49
rtibia 21.9884
rfoot -27.7213 -38.7742
rtoes 16.1929
lfemur -30.4763 7.75784 -19.9638
ltibia 56.7863
lfoot -21.4512 18.5175
ltoes -10.7264
1555
root -0.990348 15.4918 0.06882 932.089 -102.863 -572.281
lowerback 10.2489 3.53778 6.32979
upperback -3.61836 5.7928 2.25473
thorax -9.2555 2.48218 -2.15245
lowerneck -4.76502 9.52102 7.36916
upperneck 7.63115 13.011 -9.23777
head 4.14761 6.24413 -3.23855
rclavicle 1.93629e-014 -5.96354e-016
rhumerus -25.9669 24.4959 -87.9405
rradius 50.8836
rwrist 2.95603
rhand -14.6765 -61.9368
rfingers 7.12502
rthumb -168.523 -88.3973
lclavicle 1.93629e-014 -5.96354e-016
lhumerus -60.8674 -1.9665 79.0298
lradius 27.4264
lwrist -46.3705
lhand 8.5365 -28.7739
lfingers 7.12502
lthumb 33.737 -1.93218
rfemur -5.5501 16.481 30.7808
rtibia 21.6669
rfoot -29.2423 -38.922
rtoes 18.5488
lfemur -31.0244 8.1637 -20.3657
ltibia 54.8301
lfoot -23.9028 18.4451
ltoes -0.490079
1556
root -1.11529 15.5053 0.0994297 932.217 -102.785 -572.382
lowerback 10.3759 4.0359 6.36747
upperback -3.60419 6.47521 2.25194
thorax -9.25868 2.80929 -2.2969
lowerneck -4.06166 10.1441 7.85629
upperneck 6.89008 13.8491 -9.66841
head 3.94248 6.68665 -3.42184
rclavicle -3.22342e-014 9.93923e-015
rhumerus -24.7629 25.3215 -88.0302
rradius 51.318
rwrist 3.56513
rhand -14.942 -61.85
rfingers 7.12502
rthumb -168.779 -88.47
lclavicle -3.22342e-014 9.93923e-015
lhumerus -62.244 -3.11437 80.1791
lradius 27.8627
lwrist -44.9114
lhand 8.90671 -28.0868
lfingers 7.12502
lthumb 34.0887 -1.32279
rfemur -4.81357 16.2808 30.8885
rtibia 21.2833
rfoot -28.9838 -39.14
rtoes 17.6883
lfemur -31.4287 8.32587 -20.8134
ltibia 52.7976
lfoot -23.7085 19.6444
ltoes -6.53221
1557
root -1.24146 15.5171 0.136671 932.039 -102.811 -572.185
lowerback 10.3548 4.50718 6.62427
upperback -3.52889 7.12387 2.11724
thorax -9.0659 3.11404 -2.67678
lowerneck -3.26932 10.8547 8.25196
upperneck 6.08057 14.7851 -9.74715
head 3.68568 7.1942 -3.48901
rclavicle -5.03236e-014 -2.06736e-014
rhumerus -23.3974 25.8998 -88.1988
rradius 51.5475
rwrist 4.13292
rhand -14.0932 -61.0199
rfingers 7.12502
rthumb -167.961 -89.3464
lclavicle -5.03236e-014 -2.06736e-014
lhumerus -63.4949 -4.32082 81.1772
lradius 28.4071
lwrist -42.9313
lhand 9.15698 -27.506
lfingers 7.12502
lthumb 34.3263 -0.795314
rfemur -4.16443 15.069 30.911
rtibia 20.8729
rfoot -27.5958 -39.2313
rtoes 14.237
lfemur -31.7275 8.24294 -21.2753
ltibia 50.7346
lfoot -24.7969 20.0671
ltoes -1.59821
1558
root -1.36317 15.523 0.171195 931.846 -102.999 -571.881
lowerback 10.3335 4.89938 6.86932
upperback -3.42957 7.66402 1.99912
thorax -8.8514 3.37047 -3.00907
lowerneck -3.09473 11.6029 9.15727
upperneck 5.69687 15.783 -10.292
head 3.74749 7.6993 -3.71262
rclavicle 4.89631e-014 4.37326e-015
rhumerus -21.8316 27.0232 -88.4984
rradius 51.7083
rwrist 3.6914
rhand -16.3253 -63.3967
rfingers 7.12502
rthumb -170.114 -86.8554
lclavicle 4.89631e-014 4.37326e-015
lhumerus -64.5622 -5.3578 81.9092
lradius 29.0533
lwrist -40.9716
lhand 9.70346 -27.8507
lfingers 7.12502
lthumb 34.845 -1.25858
rfemur -3.73961 13.3355 30.9047
rtibia 20.4496
rfoot -25.9687 -39.0549
rtoes 10.3581
lfemur -32.1441 8.15138 -21.733
ltibia 48.6786
lfoot -25.742 20.5458
ltoes 3.00281
1559
root -1.47726 15.5218 0.200394 931.276 -103.25 -571.167
lowerback 10.4903 5.19978 6.79543
upperback -3.40307 8.06867 1.99313
thorax -8.88557 3.56906 -3.05236
lowerneck -2.24433 12.6088 8.69098
upperneck 4.51433 17.0831 -9.58871
head 3.27557 8.40048 -3.42591
rclavicle -4.57546e-014 1.98785e-014
rhumerus -20.2746 28.4592 -88.748
rradius 51.7597
rwrist 3.26832
rhand -16.2043 -62.8749
rfingers 7.12502
rthumb -169.997 -87.3828
lclavicle -4.57546e-014 1.98785e-014
lhumerus -65.6971 -5.89847 82.3899
lradius 29.7498
lwrist -38.6672
lhand 10.4409 -28.0276
lfingers 7.12502
lthumb 35.5444 -1.60045
rfemur -3.0758 15.1814 31.2742
rtibia 20.0377
rfoot -28.5617 -40.6621
rtoes 13.4185
lfemur -32.6458 8.10687 -22.309
ltibia 46.6847
lfoot -25.5921 21.778
ltoes 0.399874
1560
root -1.59526 15.5195 0.236961 931.309 -103.593 -571.101
lowerback 10.6122 5.53017 7.0118
upperback -3.43499 8.5508 1.95173
thorax -8.91194 3.78629 -3.30015
lowerneck -1.92814 13.0506 10.882
upperneck 4.26983 17.7619 -11.622
head 3.59565 8.72731 -4.26985
rclavicle -6.96368e-014 -3.29983e-014
rhumerus -18.7529 29.6456 -88.9432
rradius 51.5758
rwrist 3.37324
rhand -14.9383 -63.8153
rfingers 7.12502
rthumb -168.776 -86.5049
lclavicle -6.96368e-014 -3.29983e-014
lhumerus -66.795 -6.58463 82.8757
lradius 30.3329
lwrist -35.3569
lhand 11.5527 -27.2892
lfingers 7.12502
lthumb 36.5975 -1.12173
rfemur -2.57589 14.3364 31.4604
rtibia 19.6749
rfoot -30.1241 -39.8539
rtoes 16.6821
lfemur -33.0405 7.97505 -22.6531
ltibia 44.7774
lfoot -25.7795 22.578
ltoes 0.07517
1561
root -1.72381 15.5216 0.281022 932.127 -103.94 -571.746
lowerback 10.4293 5.93395 7.52623
upperback -3.41518 9.13416 1.87444
thorax -8.63959 4.05312 -3.71445
lowerneck -1.35251 13.7874 10.0247
upperneck 3.29003 18.668 -10.3715
head 3.10455 9.228 -3.79262
rclavicle 4.41737e-014 1.80894e-014
rhumerus -16.8319 30.1034 -88.697
rradius 51.1978
rwrist 5.47069
rhand -11.4548 -67.7193
rfingers 7.12502
rthumb -165.418 -82.8133
lclavicle 4.41737e-014 1.80894e-014
lhumerus -67.6141 -7.28021 83.1455
lradius 30.8469
lwrist -31.9171
lhand 13.0891 -26.5828
lfingers 7.12502
lthumb 38.05 -0.797189
rfemur -2.33246 11.137 31.4357
rtibia 19.3298
rfoot -28.7482 -37.7735
rtoes 15.8133
lfemur -33.3732 7.72608 -22.7657
ltibia 42.9443
lfoot -26.5645 23.0221
ltoes 2.37776
1562
root -1.85039 15.5185 0.324934 932.426 -104.314 -571.858
lowerback 10.2332 6.27356 7.83742
upperback -3.37658 9.60217 1.83055
thorax -8.37852 4.27843 -3.95874
lowerneck -1.58318 14.303 11.0831
upperneck 3.42675 19.3759 -11.0438
head 3.42211 9.56561 -4.02575
rclavicle -2.9563e-014 1.3418e-014
rhumerus -14.96 30.6624 -88.4237
rradius 51.1778
rwrist 7.50211
rhand -9.26246 -74.5736
rfingers 7.12502
rthumb -163.306 -76.1242
lclavicle -2.9563e-014 1.3418e-014
lhumerus -68.3457 -7.60757 82.9949
lradius 31.3653
lwrist -29.1001
lhand 14.7707 -26.2494
lfingers 7.12502
lthumb 39.6357 -0.914468
rfemur -1.77913 11.4163 31.7972
rtibia 18.8655
rfoot -28.9642 -38.5879
rtoes 15.4781
lfemur -33.6777 7.49279 -23.063
ltibia 41.1828
lfoot -24.1737 25.3018
ltoes -12.4727
